<?xml version="1.0" encoding="UTF-8" standalone="no"?>
<!-- Created with Inkscape (http://www.inkscape.org/) -->

<svg
   xmlns:dc="http://purl.org/dc/elements/1.1/"
   xmlns:cc="http://creativecommons.org/ns#"
   xmlns:rdf="http://www.w3.org/1999/02/22-rdf-syntax-ns#"
   xmlns:svg="http://www.w3.org/2000/svg"
   xmlns="http://www.w3.org/2000/svg"
   xmlns:sodipodi="http://sodipodi.sourceforge.net/DTD/sodipodi-0.dtd"
   xmlns:inkscape="http://www.inkscape.org/namespaces/inkscape"
   width="210mm"
   height="297mm"
   id="svg2"
   version="1.1"
   inkscape:version="0.47 r22583"
   sodipodi:docname="02.svg">
  <defs
     id="defs4">
    <inkscape:perspective
       sodipodi:type="inkscape:persp3d"
       inkscape:vp_x="0 : 526.18109 : 1"
       inkscape:vp_y="0 : 1000 : 0"
       inkscape:vp_z="744.09448 : 526.18109 : 1"
       inkscape:persp3d-origin="372.04724 : 350.78739 : 1"
       id="perspective10" />
    <inkscape:perspective
       id="perspective2977"
       inkscape:persp3d-origin="0.5 : 0.33333333 : 1"
       inkscape:vp_z="1 : 0.5 : 1"
       inkscape:vp_y="0 : 1000 : 0"
       inkscape:vp_x="0 : 0.5 : 1"
       sodipodi:type="inkscape:persp3d" />
    <inkscape:perspective
       id="perspective3005"
       inkscape:persp3d-origin="0.5 : 0.33333333 : 1"
       inkscape:vp_z="1 : 0.5 : 1"
       inkscape:vp_y="0 : 1000 : 0"
       inkscape:vp_x="0 : 0.5 : 1"
       sodipodi:type="inkscape:persp3d" />
    <inkscape:perspective
       id="perspective3806"
       inkscape:persp3d-origin="0.5 : 0.33333333 : 1"
       inkscape:vp_z="1 : 0.5 : 1"
       inkscape:vp_y="0 : 1000 : 0"
       inkscape:vp_x="0 : 0.5 : 1"
       sodipodi:type="inkscape:persp3d" />
    <inkscape:perspective
       id="perspective3828"
       inkscape:persp3d-origin="0.5 : 0.33333333 : 1"
       inkscape:vp_z="1 : 0.5 : 1"
       inkscape:vp_y="0 : 1000 : 0"
       inkscape:vp_x="0 : 0.5 : 1"
       sodipodi:type="inkscape:persp3d" />
  </defs>
  <sodipodi:namedview
     id="base"
     pagecolor="#ffffff"
     bordercolor="#666666"
     borderopacity="1.0"
     inkscape:pageopacity="0.0"
     inkscape:pageshadow="2"
     inkscape:zoom="0.98994949"
     inkscape:cx="255.62995"
     inkscape:cy="579.00357"
     inkscape:document-units="px"
     inkscape:current-layer="layer1"
     showgrid="false"
     inkscape:window-width="1680"
     inkscape:window-height="878"
     inkscape:window-x="0"
     inkscape:window-y="25"
     inkscape:window-maximized="1" />
  <metadata
     id="metadata7">
    <rdf:RDF>
      <cc:Work
         rdf:about="">
        <dc:format>image/svg+xml</dc:format>
        <dc:type
           rdf:resource="http://purl.org/dc/dcmitype/StillImage" />
        <dc:title></dc:title>
      </cc:Work>
    </rdf:RDF>
  </metadata>
  <g
     inkscape:label="Capa 1"
     inkscape:groupmode="layer"
     id="layer1">
    <path
       style="fill:#808000;stroke:#000000;stroke-width:5;stroke-miterlimit:4;stroke-dasharray:none"
       d="m 256.28426,371.0153 4.61498,42.40158 c -6.96765,7.21945 -12.19518,16.11529 -15.03968,26.02661 l -39.00478,17.1949 39.00478,17.1949 c 2.84148,9.91443 8.07283,18.80407 15.03968,26.02661 l -4.61498,42.40158 34.38979,-25.15983 c 4.81859,1.19559 9.85135,1.82725 15.03968,1.82725 5.18324,0 10.22538,-0.63394 15.03968,-1.82725 l 34.3898,25.15983 -4.59156,-42.40158 c 6.96135,-7.22059 12.19977,-16.11731 15.03968,-26.02661 l 39.00478,-17.1949 -39.00478,-17.1949 c -2.84131,-9.90068 -8.08336,-18.78782 -15.03968,-26.00318 l 4.59156,-42.42501 -34.3898,25.18326 c -4.8143,-1.19332 -9.85644,-1.82725 -15.03968,-1.82725 -5.18042,0 -10.20433,0.63519 -15.01625,1.82725 L 256.28426,371.0153 z"
       id="path3850"
       inkscape:export-filename="/mnt/hgfs/shared/Projects/rbWeather/picures/02d_m.png"
       inkscape:export-xdpi="90"
       inkscape:export-ydpi="90" />
    <path
       style="fill:#999999;stroke:#000000;stroke-width:5;stroke-miterlimit:4;stroke-dasharray:none"
       d="m 242.39063,114.97155 c -28.03625,0 -52.62847,14.66327 -66.59375,36.71875 -9.47621,-6.58863 -20.99001,-10.4375 -33.40625,-10.4375 -32.35773,0 -58.593755,26.23603 -58.593755,58.59375 0,1.06403 0.006,2.10619 0.0625,3.15625 -1.00009,-0.0688 -2.01368,-0.125 -3.03125,-0.125 -23.98935,0 -43.4375,19.44815 -43.4375,43.4375 0,23.98935 19.44815,43.4375 43.4375,43.4375 0.67684,0 1.36198,-0.0319 2.03125,-0.0625 l 0.21875,0 249.593755,0 c 0.80921,0.041 1.6181,0.0625 2.4375,0.0625 0.8194,0 1.65954,-0.0215 2.46875,-0.0625 l 5.75,0 0,-0.65625 c 22.31168,-3.88587 39.28125,-23.3264 39.28125,-46.75 0,-26.22092 -21.27908,-47.46875 -47.5,-47.46875 -4.8819,0 -9.56744,0.72523 -14,2.09375 0.0408,-1.04193 0.0625,-2.07305 0.0625,-3.125 0,-43.51556 -35.26568,-78.8125 -78.78125,-78.8125 z"
       id="path2983-3"
       inkscape:export-filename="/mnt/hgfs/shared/Projects/rbWeather/picures/02n_m.png"
       inkscape:export-xdpi="90"
       inkscape:export-ydpi="90" />
    <path
       style="fill:#0000ff;stroke:#000000;stroke-width:5;stroke-miterlimit:4;stroke-dasharray:none"
       d="m 311.44958,137.15097 c -52.4459,23.32333 -76.05892,84.75821 -52.73558,137.2041 23.32333,52.4459 84.7582,76.05892 137.2041,52.73558 15.92963,-7.0841 29.17572,-17.703 39.27756,-30.49773 -2.69404,1.52286 -5.48993,2.95446 -8.37566,4.23778 -48.66114,21.6402 -105.63487,-0.28181 -127.27508,-48.94295 -20.27008,-45.58023 -2.32201,-98.42725 40.02161,-122.72623 -9.47872,1.30353 -18.9359,3.90652 -28.11695,7.98945 z"
       id="path3019"
       inkscape:export-filename="/mnt/hgfs/shared/Projects/rbWeather/picures/02n_m.png"
       inkscape:export-xdpi="90"
       inkscape:export-ydpi="90" />
    <path
       style="fill:#999999;stroke:#000000;stroke-width:5;stroke-miterlimit:4;stroke-dasharray:none"
       d="m 230.96206,432.11442 c -28.03625,0 -52.62847,14.66327 -66.59375,36.71875 -9.47621,-6.58863 -20.99001,-10.4375 -33.40624,-10.4375 -32.357741,0 -58.593766,26.23603 -58.593766,58.59375 0,1.06403 0.006,2.10619 0.0625,3.15625 -1.00009,-0.0688 -2.01368,-0.125 -3.03125,-0.125 -23.98935,0 -43.4375,19.44815 -43.4375,43.4375 0,23.98935 19.44815,43.4375 43.4375,43.4375 0.67684,0 1.36198,-0.0319 2.03125,-0.0625 l 0.21875,0 249.593756,0 c 0.80921,0.041 1.61811,0.0625 2.4375,0.0625 0.8194,0 1.65954,-0.0215 2.46875,-0.0625 l 5.75,0 0,-0.65625 c 22.31168,-3.88587 39.28125,-23.3264 39.28125,-46.75 0,-26.22092 -21.27908,-47.46875 -47.5,-47.46875 -4.88189,0 -9.56744,0.72523 -14,2.09375 0.0408,-1.04193 0.0625,-2.07305 0.0625,-3.125 0,-43.51556 -35.26568,-78.8125 -78.78125,-78.8125 z"
       id="path2983-3-4"
       inkscape:export-filename="/mnt/hgfs/shared/Projects/rbWeather/picures/02d_m.png"
       inkscape:export-xdpi="90"
       inkscape:export-ydpi="90" />
  </g>
</svg>
